#!OML:ASF X:\für Bonn\!DataBase\2005_08_12_Daniel\c3d\Daniel.ASF
:FULLY-SPECIFIED
:DEGREES
214
root 0.94607 15.6805 -18.1639 206.296 149.143 -163.057
lowerback 91.673 -10.0204 13.0373
upperback 4.92892 3.65024 -3.19562
thorax -11.5806 2.38739 -9.9374
lowerneck 3.91925 -9.8186 -1.04723
upperneck 4.74739 -12.8852 3.66971
head 1.15829 -6.28848 1.29435
rclavicle -1.01778e-013 3.89618e-014
rhumerus 72.8879 -19.4801 -96.3775
rradius 4.66373
rwrist 77.1208
rhand -42.4644 -1.98374
rfingers 7.12502
rthumb -15.3425 -31.3946
lclavicle -1.01778e-013 3.89618e-014
lhumerus -28.649 -16.9251 96.6514
lradius 63.7818
lwrist 12.5483
lhand -11.8877 -11.4036
lfingers 7.12502
lthumb 14.1652 18.0934
rfemur -61.5459 -14.1739 2.08561
rtibia 76.9552
rfoot -31.4522 -13.3485
rtoes -17.5736
lfemur -64.8445 -9.05106 -29.7226
ltibia 63.0079
lfoot -13.2923 -26.7904
ltoes -5.09493
215
root 0.943187 15.6796 -18.1592 206.268 149.102 -163.06
lowerback 91.6932 -9.94243 12.969
upperback 4.96429 3.66929 -3.18588
thorax -11.5414 2.40224 -9.91047
lowerneck 3.81576 -9.8427 -0.94653
upperneck 4.66868 -12.9188 3.68297
head 1.14547 -6.30603 1.27923
rclavicle 9.54166e-015 -7.15625e-015
rhumerus 72.6745 -19.6276 -96.1073
rradius 4.69312
rwrist 77.072
rhand -42.759 -2.30643
rfingers 7.12502
rthumb -15.6262 -31.6953
lclavicle 9.54166e-015 -7.15625e-015
lhumerus -28.5601 -17.0178 96.7269
lradius 63.7728
lwrist 12.488
lhand -11.7323 -11.2313
lfingers 7.12502
lthumb 14.315 18.2552
rfemur -61.5268 -14.1524 2.10038
rtibia 77.0067
rfoot -31.48 -13.4131
rtoes -17.6841
lfemur -64.7997 -9.02413 -29.7252
ltibia 63.0189
lfoot -13.2927 -26.8075
ltoes -5.02047
216
root 0.940239 15.6804 -18.1543 206.248 149.055 -163.093
lowerback 91.6736 -9.84468 12.9037
upperback 5.00197 3.70329 -3.15898
thorax -11.5056 2.41865 -9.86949
lowerneck 3.7003 -9.86001 -0.864764
upperneck 4.61502 -12.9444 3.69482
head 1.14351 -6.3193 1.26534
rclavicle 1.65389e-013 -4.69132e-014
rhumerus 72.4551 -19.7972 -95.7971
rradius 4.67387
rwrist 76.8666
rhand -42.983 -2.435
rfingers 7.12502
rthumb -15.842 -31.8069
lclavicle 1.65389e-013 -4.69132e-014
lhumerus -28.4702 -17.1071 96.8129
lradius 63.7656
lwrist 12.458
lhand -11.5774 -11.0566
lfingers 7.12502
lthumb 14.4642 18.4193
rfemur -61.5185 -14.1135 2.14358
rtibia 77.0376
rfoot -31.504 -13.4629
rtoes -17.72
lfemur -64.7873 -8.98468 -29.6972
ltibia 63.025
lfoot -13.2909 -26.8123
ltoes -4.9968
217
root 0.937722 15.6816 -18.1499 206.23 149.002 -163.09
lowerback 91.6553 -9.79657 12.8558
upperback 5.03636 3.70256 -3.16151
thorax -11.4738 2.42582 -9.85796
lowerneck 3.57459 -9.88531 -0.794655
upperneck 4.57694 -12.9818 3.73712
head 1.15158 -6.33799 1.26141
rclavicle -5.725e-014 7.07673e-014
rhumerus 72.1726 -20.0112 -95.5059
rradius 4.7277
rwrist 76.5036
rhand -43.0852 -2.22607
rfingers 7.12502
rthumb -15.9404 -31.5901
lclavicle -5.725e-014 7.07673e-014
lhumerus -28.3929 -17.2155 96.8923
lradius 63.748
lwrist 12.3754
lhand -11.4695 -10.8522
lfingers 7.12502
lthumb 14.5681 18.6162
rfemur -61.479 -14.1121 2.16376
rtibia 77.0518
rfoot -31.5058 -13.5339
rtoes -17.8771
lfemur -64.739 -8.97256 -29.7047
ltibia 63.0194
lfoot -13.2927 -26.8069
ltoes -5.04772
218
root 0.935299 15.684 -18.1454 206.207 148.967 -163.123
lowerback 91.6239 -9.69773 12.7869
upperback 5.07316 3.73056 -3.1386
thorax -11.4425 2.4396 -9.81924
lowerneck 3.42812 -9.90786 -0.71162
upperneck 4.53469 -13.0154 3.73427
head 1.15734 -6.35503 1.2408
rclavicle 3.18055e-015 6.36111e-015
rhumerus 71.9087 -20.1679 -95.1952
rradius 4.73658
rwrist 75.9558
rhand -43.1675 -1.98652
rfingers 7.12502
rthumb -16.0197 -31.3442
lclavicle 3.18055e-015 6.36111e-015
lhumerus -28.3007 -17.2969 96.9911
lradius 63.7251
lwrist 12.3217
lhand -11.3219 -10.6832
lfingers 7.12502
lthumb 14.7104 18.7749
rfemur -61.4672 -14.1126 2.21736
rtibia 77.0564
rfoot -31.5094 -13.5565
rtoes -17.8412
lfemur -64.7053 -8.95831 -29.6616
ltibia 63.0056
lfoot -13.2925 -26.794
ltoes -5.00292
219
root 0.932313 15.6879 -18.1401 206.182 148.939 -163.169
lowerback 91.5753 -9.60653 12.7266
upperback 5.11277 3.74954 -3.1357
thorax -11.4102 2.45196 -9.80594
lowerneck 3.22989 -9.93267 -0.673658
upperneck 4.55558 -13.0556 3.76757
head 1.19767 -6.37388 1.23343
rclavicle 8.26944e-014 -8.50798e-014
rhumerus 71.6403 -20.277 -94.9319
rradius 4.73919
rwrist 75.288
rhand -43.1959 -1.62022
rfingers 7.12502
rthumb -16.0471 -30.9757
lclavicle 8.26944e-014 -8.50798e-014
lhumerus -28.2184 -17.4097 97.0476
lradius 63.6817
lwrist 12.2411
lhand -11.139 -10.5609
lfingers 7.12502
lthumb 14.8866 18.8843
rfemur -61.4394 -14.0742 2.27804
rtibia 77.037
rfoot -31.5237 -13.6015
rtoes -17.8824
lfemur -64.6687 -8.91611 -29.626
ltibia 62.9809
lfoot -13.3156 -26.7859
ltoes -5.03638
220
root 0.93 15.6906 -18.1349 206.171 148.924 -163.181
lowerback 91.5174 -9.50686 12.6344
upperback 5.15761 3.74912 -3.12537
thorax -11.3806 2.45693 -9.76604
lowerneck 2.97778 -9.94145 -0.626033
upperneck 4.5989 -13.0759 3.76153
head 1.24991 -6.38243 1.20928
rclavicle -2.22639e-014 -5.56597e-015
rhumerus 71.3506 -20.4007 -94.6411
rradius 4.72707
rwrist 74.4733
rhand -43.2202 -1.17465
rfingers 7.12502
rthumb -16.0704 -30.5283
lclavicle -2.22639e-014 -5.56597e-015
lhumerus -28.1259 -17.47 97.1221
lradius 63.6545
lwrist 12.193
lhand -10.9778 -10.4525
lfingers 7.12502
lthumb 15.0419 18.9811
rfemur -61.4168 -14.0909 2.31782
rtibia 77.0204
rfoot -31.5026 -13.5931
rtoes -17.9683
lfemur -64.6176 -8.88906 -29.6151
ltibia 62.943
lfoot -13.3266 -26.784
ltoes -5.05404
221
root 0.927859 15.6967 -18.1295 206.116 148.903 -163.234
lowerback 91.4757 -9.42959 12.5728
upperback 5.20373 3.75587 -3.12392
thorax -11.3403 2.46629 -9.74844
lowerneck 2.72218 -9.95495 -0.653886
upperneck 4.63431 -13.1062 3.82651
head 1.31138 -6.39683 1.21812
rclavicle 3.18055e-014 -5.32743e-014
rhumerus 71.0556 -20.5539 -94.3392
rradius 4.7103
rwrist 73.6441
rhand -43.2254 -0.693371
rfingers 7.12502
rthumb -16.0754 -30.0466
lclavicle 3.18055e-014 -5.32743e-014
lhumerus -28.0178 -17.6116 97.1715
lradius 63.6277
lwrist 12.2041
lhand -10.8187 -10.369
lfingers 7.12502
lthumb 15.1952 19.053
rfemur -61.3583 -14.0836 2.39038
rtibia 76.9801
rfoot -31.49 -13.6103
rtoes -18.1119
lfemur -64.5344 -8.86659 -29.5652
ltibia 62.8989
lfoot -13.3811 -26.7421
ltoes -5.10305
222
root 0.924843 15.7024 -18.1236 206.075 148.893 -163.294
lowerback 91.3835 -9.3325 12.5123
upperback 5.28085 3.77104 -3.12268
thorax -11.2701 2.48263 -9.73519
lowerneck 2.41785 -9.9802 -0.654661
upperneck 4.66955 -13.1526 3.86847
head 1.37792 -6.41879 1.21295
rclavicle 2.22639e-014 3.18055e-014
rhumerus 70.7753 -20.6864 -94.0633
rradius 4.71227
rwrist 72.9304
rhand -43.156 -0.474462
rfingers 7.12502
rthumb -16.0086 -29.833
lclavicle 2.22639e-014 3.18055e-014
lhumerus -27.8529 -17.7296 97.2229
lradius 63.5305
lwrist 12.1037
lhand -10.6598 -10.3568
lfingers 7.12502
lthumb 15.3482 19.0536
rfemur -61.3166 -14.0617 2.47741
rtibia 76.9337
rfoot -31.4645 -13.6371
rtoes -18.0915
lfemur -64.476 -8.8452 -29.4985
ltibia 62.8551
lfoot -13.4073 -26.7079
ltoes -5.13249
223
root 0.923356 15.7084 -18.1175 206.037 148.885 -163.344
lowerback 91.2978 -9.26533 12.4552
upperback 5.33093 3.75713 -3.14503
thorax -11.2342 2.48574 -9.74303
lowerneck 2.19577 -9.99356 -0.658417
upperneck 4.70974 -13.1809 3.9323
head 1.43393 -6.43139 1.21937
rclavicle -4.45278e-014 -3.4191e-014
rhumerus 70.4188 -20.8398 -93.785
rradius 4.71643
rwrist 72.2534
rhand -43.1206 -0.268793
rfingers 7.12502
rthumb -15.9745 -29.6301
lclavicle -4.45278e-014 -3.4191e-014
lhumerus -27.7412 -17.8976 97.2319
lradius 63.4718
lwrist 12.1085
lhand -10.5459 -10.3844
lfingers 7.12502
lthumb 15.4579 19.0176
rfemur -61.2669 -14.0845 2.55094
rtibia 76.8747
rfoot -31.4316 -13.6049
rtoes -18.1394
lfemur -64.409 -8.81571 -29.4475
ltibia 62.8064
lfoot -13.4099 -26.6766
ltoes -5.19295
224
root 0.921385 15.7141 -18.1107 206.001 148.891 -163.403
lowerback 91.1974 -9.14962 12.3613
upperback 5.39087 3.7584 -3.13841
thorax -11.1939 2.49173 -9.70853
lowerneck 2.00394 -9.99837 -0.634053
upperneck 4.69882 -13.1957 3.9466
head 1.4624 -6.43898 1.20966
rclavicle -7.31528e-014 3.97569e-014
rhumerus 70.0476 -20.9444 -93.4908
rradius 4.71953
rwrist 71.7036
rhand -43.0277 -0.337436
rfingers 7.12502
rthumb -15.885 -29.7059
lclavicle -7.31528e-014 3.97569e-014
lhumerus -27.6012 -18.0196 97.262
lradius 63.3907
lwrist 12.1058
lhand -10.443 -10.3745
lfingers 7.12502
lthumb 15.557 19.0198
rfemur -61.2305 -14.07 2.63528
rtibia 76.8153
rfoot -31.4078 -13.642
rtoes -18.2255
lfemur -64.3504 -8.79871 -29.3814
ltibia 62.7606
lfoot -13.454 -26.6033
ltoes -5.2493
